<svg version="1.1" xmlns="http://www.w3.org/2000/svg" xmlns:xlink="http://www.w3.org/1999/xlink" x="0px" y="0px"
	 viewBox="0 0 495.539 495.539" style="enable-background:new 0 0 495.539 495.539;" xml:space="preserve">
<g id="mentors">
<path d="M466.541,76.359H28.998C12.981,76.359,0,89.34,0,105.355v284.829c0,16.014,12.981,28.996,28.998,28.996
	h437.543c16.017,0,28.998-12.982,28.998-28.996V105.355C495.539,89.34,482.558,76.359,466.541,76.359z M252.641,125.116h108.858
	c6.805,0,12.324,5.521,12.324,12.324c0,6.804-5.52,12.324-12.324,12.324H252.641c-6.805,0-12.324-5.519-12.324-12.324
	C240.316,130.637,245.836,125.116,252.641,125.116z M192.818,214.617c-2.777,13.576-12.549,23.059-21.824,21.174
	c-0.914-0.185-1.749-0.555-2.567-0.931c-7.622,16.583-18.679,31.331-31.74,40.148v8.496c0,14.956,9.274,28.347,23.269,33.619
	c1.219,0.457,2.197,1.42,2.679,2.639c0.481,1.22,0.417,2.591-0.161,3.764l-19.609,39.635c-6.001,12.147-18.389,19.826-31.934,19.826
	c-13.543,0-25.93-7.679-31.931-19.826L59.39,323.526c-0.579-1.172-0.643-2.544-0.161-3.764c0.48-1.219,1.461-2.183,2.68-2.639
	c13.994-5.272,23.268-18.663,23.268-33.619v-8.496c-13.061-8.817-24.118-23.564-31.74-40.148c-0.818,0.376-1.654,0.746-2.567,0.931
	c-9.276,1.885-19.048-7.598-21.824-21.174c-2.743-13.584,2.535-26.124,11.843-28.018c0.48-0.097,0.963-0.041,1.461-0.08
	c0.498-40.927,30.953-73.968,68.582-73.968c37.631,0,68.087,33.041,68.586,73.968c0.498,0.039,0.979-0.017,1.46,0.08
	C190.281,188.493,195.561,201.033,192.818,214.617z M410.795,379.809H301.934c-6.802,0-12.321-5.52-12.321-12.324
	c0-6.803,5.52-12.324,12.321-12.324h108.861c6.805,0,12.324,5.521,12.324,12.324C423.119,374.289,417.6,379.809,410.795,379.809z
	 M443.658,314.083H252.641c-6.805,0-12.324-5.521-12.324-12.324c0-6.804,5.52-12.324,12.324-12.324h191.018
	c6.805,0,12.324,5.52,12.324,12.324C455.982,308.562,450.463,314.083,443.658,314.083z M443.658,248.355H252.641
	c-6.805,0-12.324-5.521-12.324-12.324c0-6.804,5.52-12.324,12.324-12.324h191.018c6.805,0,12.324,5.52,12.324,12.324
	C455.982,242.834,450.463,248.355,443.658,248.355z"/>

</g>
<!-- <g id="speech">
<path id="speech_1" d="M411.628,0H85.272C65.538,0,49.528,16.003,49.528,35.745v293.202c0,19.742,16.01,35.743,35.744,35.743
	h70.143l76.848,123.226c3.479,5.584,9.6,8.984,16.188,8.984c6.589,0,12.706-3.4,16.188-8.984l76.845-123.226h70.145
	c19.732,0,35.743-16.001,35.743-35.743V35.745C447.371,16.003,431.36,0,411.628,0z M371.368,146.286
	c-1.084,3.221-4.112,5.391-7.512,5.391h-19.943v144.157c0,4.387-3.545,7.94-7.916,7.94H160.905c-4.371,0-7.916-3.553-7.916-7.94
	V151.677h-19.945c-3.398,0-6.426-2.17-7.51-5.391c-1.087-3.229,0-6.783,2.686-8.847l45.004-34.384V74.151
	c0-3.19,2.59-5.788,5.796-5.788h25.302c3.189,0,5.795,2.598,5.795,5.788v0.728l31.52-24.104c4.031-3.061,9.6-3.061,13.631,0
	l113.414,86.663C371.368,139.502,372.452,143.057,371.368,146.286z"/>
</g> -->
<g id="map">
	<path id="XMLID_179_" d="M134.637,59.363L6.133,113.511C2.417,115.076,0,118.72,0,122.749v303.226c0,3.354,1.686,6.493,4.478,8.347
		c2.8,1.854,6.34,2.192,9.438,0.883l128.504-54.155c3.717-1.565,6.133-5.209,6.133-9.238V68.594c0-3.354-1.686-6.493-4.479-8.348
		C141.275,58.385,137.735,58.056,134.637,59.363z"/>
	<path id="XMLID_178_" d="M313.852,98.236L185.34,57.622c-3.042-0.964-6.365-0.418-8.942,1.468c-2.575,1.886-4.1,4.888-4.1,8.083
		v303.956c0,4.375,2.831,8.244,6.997,9.56l128.514,40.607c3.042,0.963,6.365,0.417,8.94-1.469c2.578-1.886,4.103-4.888,4.103-8.082
		V107.796C320.852,103.422,318.017,99.553,313.852,98.236z"/>
	<path id="XMLID_177_" d="M489.047,59.091c-2.575-1.886-5.898-2.432-8.94-1.468L351.593,98.236
		c-4.166,1.317-6.998,5.186-6.998,9.561v303.948c0,3.194,1.524,6.196,4.1,8.082c2.578,1.886,5.901,2.432,8.943,1.469l128.511-40.607
		c4.166-1.316,7-5.185,7-9.56V67.173C493.149,63.979,491.625,60.977,489.047,59.091z"/>
</g>
<g id="cal">
	<path id="XMLID_57_" d="M469.977,80.044h-34.891v45.15c0,22.671-18.375,41.046-41.046,41.046
		c-22.673,0-41.046-18.374-41.046-41.046v-45.15H139.555v45.15c0,22.671-18.373,41.046-41.047,41.046
		c-22.67,0-41.047-18.374-41.047-41.046v-45.15H22.572C10.115,80.044,0,90.153,0,102.626v335.19
		c0,12.474,10.115,22.583,22.572,22.583h447.404c12.457,0,22.574-10.109,22.574-22.583v-335.19
		C492.551,90.153,482.434,80.044,469.977,80.044z M123.827,365.32c0,1.884-1.524,3.416-3.418,3.416H76.623
		c-1.891,0-3.416-1.532-3.416-3.416v-43.788c0-1.892,1.525-3.423,3.416-3.423h43.786c1.893,0,3.418,1.531,3.418,3.423V365.32z
		 M123.827,266.81c0,1.884-1.524,3.415-3.418,3.415H76.623c-1.891,0-3.416-1.531-3.416-3.415v-43.788
		c0-1.891,1.525-3.422,3.416-3.422h43.786c1.893,0,3.418,1.531,3.418,3.422V266.81z M368.738,223.022
		c0-1.891,1.523-3.422,3.415-3.422h43.789c1.892,0,3.413,1.531,3.413,3.422v43.788c0,1.884-1.521,3.415-3.413,3.415h-43.789
		c-1.892,0-3.415-1.531-3.415-3.415V223.022z M222.337,365.32c0,1.884-1.524,3.416-3.417,3.416h-43.786
		c-1.894,0-3.416-1.532-3.416-3.416v-43.788c0-1.892,1.522-3.423,3.416-3.423h43.786c1.893,0,3.417,1.531,3.417,3.423V365.32z
		 M222.337,266.81c0,1.884-1.524,3.415-3.417,3.415h-43.786c-1.894,0-3.416-1.531-3.416-3.415v-43.788
		c0-1.891,1.522-3.422,3.416-3.422h43.786c1.893,0,3.417,1.531,3.417,3.422V266.81z M320.846,365.32
		c0,1.884-1.522,3.416-3.414,3.416h-43.789c-1.892,0-3.414-1.532-3.414-3.416v-43.788c0-1.892,1.523-3.423,3.414-3.423h43.789
		c1.892,0,3.414,1.531,3.414,3.423V365.32z M320.846,266.81c0,1.884-1.522,3.415-3.414,3.415h-43.789
		c-1.892,0-3.414-1.531-3.414-3.415v-43.788c0-1.891,1.523-3.422,3.414-3.422h43.789c1.892,0,3.414,1.531,3.414,3.422V266.81z
		 M435.438,407.714c-11.512-12.563-22.365-25.663-32.963-38.977h-6.031c-10.869,9.507-21.579,19.184-31.489,29.742
		c-7.262,7.727-18.854-3.905-11.608-11.609c5.949-6.334,12.169-12.378,18.537-18.246c-1.751-0.168-3.145-1.522-3.145-3.303v-41.166
		c-3.511-4.85-7.055-9.684-10.518-14.559c-6.156-8.649,8.098-16.835,14.174-8.29c4.006,5.628,8.08,11.216,12.138,16.804h31.41
		c1.892,0,3.413,1.531,3.413,3.423v5.412c3.674-3.263,7.377-6.478,10.953-9.853c7.693-7.264,19.318,4.329,11.608,11.609
		c-7.346,6.927-14.927,13.581-22.561,20.171v14.775c8.947,11.054,18.071,21.958,27.691,32.459
		C454.182,403.897,442.605,415.538,435.438,407.714z"/>
	<path id="XMLID_56_" d="M98.508,149.821c13.598,0,24.628-11.023,24.628-24.627V56.78c0-13.605-11.03-24.628-24.628-24.628
		c-13.595,0-24.627,11.023-24.627,24.628v68.414C73.881,138.798,84.913,149.821,98.508,149.821z"/>
	<path id="XMLID_55_" d="M394.04,149.821c13.595,0,24.628-11.023,24.628-24.627V56.78c0-13.605-11.033-24.628-24.628-24.628
		c-13.599,0-24.628,11.023-24.628,24.628v68.414C369.412,138.798,380.441,149.821,394.04,149.821z"/>
</g>
<g id="speech2">
	<path id="XMLID_194_" d="M458.456,50.395H227.885c-20.528,0-37.193,16.655-37.193,37.201v54.287h77.056
		c38.796,0,70.343,31.555,70.343,70.333v60.781l83.254,47.095c1.52,0.865,3.413,0.679,4.74-0.453
		c1.342-1.132,1.813-2.976,1.214-4.618l-23.005-61.955h54.163c20.53,0,37.192-16.655,37.192-37.202V87.596
		C495.648,67.051,478.986,50.395,458.456,50.395z"/>
	<path id="XMLID_193_" d="M267.747,175.014H37.211C16.665,175.014,0,191.671,0,212.216v128.268
		c0,20.547,16.665,37.202,37.211,37.202h54.148L68.354,439.64c-0.598,1.641-0.131,3.485,1.212,4.618
		c0.778,0.655,1.733,0.995,2.704,0.995c0.693,0,1.391-0.177,2.038-0.542l118.487-67.025h74.952c20.548,0,37.21-16.655,37.21-37.202
		V212.216C304.957,191.671,288.295,175.014,267.747,175.014z"/>
</g>
</svg>